<?xml version="1.0" standalone="no"?>
<!DOCTYPE svg PUBLIC "-//W3C//DTD SVG 20010904//EN"
 "http://www.w3.org/TR/2001/REC-SVG-20010904/DTD/svg10.dtd">
<svg version="1.0" xmlns="http://www.w3.org/2000/svg"
 width="545.000000pt" height="400.000000pt" viewBox="0 0 545.000000 400.000000"
 preserveAspectRatio="xMidYMid meet">

<g transform="translate(0.000000,400.000000) scale(0.100000,-0.100000)"
fill="#000000" stroke="none">
<path d="M0 2463 l0 -1538 73 -1 c72 -2 121 -17 165 -51 16 -13 24 -33 28 -70
9 -72 0 -103 -31 -103 -14 0 -25 -4 -25 -9 0 -5 -14 -14 -31 -22 -18 -7 -43
-23 -57 -36 l-25 -23 27 -25 c20 -18 34 -23 52 -19 17 4 24 2 24 -9 0 -18 -66
-28 -128 -20 -71 10 -71 7 -72 -284 l0 -253 944 0 c934 0 945 0 951 20 3 11 3
25 -1 31 -4 7 -8 45 -9 86 -2 72 -3 75 -33 93 -18 11 -32 28 -33 37 -2 32 0
77 5 123 3 25 8 65 10 90 2 25 7 57 11 73 8 30 -2 34 -37 16 -19 -10 -20 -9
-13 31 7 39 6 41 -12 31 -11 -5 -25 -17 -33 -25 -7 -9 -18 -16 -25 -16 -6 0
-20 -9 -30 -20 -28 -30 -52 -24 -80 20 -14 22 -25 44 -25 50 0 5 -16 28 -35
49 l-36 39 36 29 c53 42 43 52 -23 20 -16 -8 -25 -8 -34 1 -15 15 -53 15 -80
1 -11 -6 -22 -8 -25 -6 -8 8 17 47 30 47 7 0 29 5 50 11 l38 10 -24 32 c-25
33 -80 134 -82 152 -1 6 -3 16 -3 23 -1 7 -6 10 -12 7 -5 -3 -10 3 -10 14 0
12 -4 21 -9 21 -12 0 -31 56 -31 91 0 19 -5 29 -15 29 -8 0 -24 23 -37 53 -19
45 -51 110 -129 259 -37 71 -35 166 3 220 11 15 8 22 -19 45 -17 16 -53 62
-81 103 -27 41 -122 183 -209 315 -88 132 -178 267 -200 300 -22 33 -61 92
-85 130 -99 155 -174 272 -184 290 -33 59 -159 74 -252 30 -67 -31 -68 -31
-47 2 45 68 161 145 230 153 50 5 53 9 40 43 -5 13 -2 17 13 17 12 0 23 9 27
20 3 11 10 20 15 20 13 0 40 54 40 80 0 11 5 20 11 20 7 0 18 8 25 18 13 16
15 16 28 -1 17 -22 38 -14 71 29 21 27 30 32 40 24 11 -9 16 -6 25 11 10 18 9
24 -4 31 -9 5 -16 16 -16 23 0 10 -11 15 -32 15 -65 1 -129 10 -147 19 -12 7
-30 7 -52 1 -34 -10 -94 1 -130 23 -14 9 -21 9 -31 -1 -9 -9 -15 -9 -28 3 -14
13 -21 13 -56 -1 -44 -17 -94 -6 -94 20 0 24 56 58 84 50 17 -4 37 1 58 13 44
25 143 61 193 68 29 5 63 -1 125 -20 47 -15 90 -31 95 -35 6 -4 39 -15 75 -24
36 -9 69 -21 74 -26 6 -6 26 -10 46 -10 20 0 69 -17 115 -39 l80 -39 -150 -1
c-160 -1 -175 -5 -175 -48 0 -32 26 -29 42 4 7 15 20 29 29 31 19 3 75 -49 84
-78 4 -13 15 -20 31 -20 33 0 30 -13 -12 -46 -62 -50 -107 -95 -100 -101 3 -3
14 1 24 10 36 32 72 12 40 -22 -11 -11 -9 -12 11 -6 22 7 23 5 17 -20 -6 -23
-4 -26 14 -20 12 4 26 0 36 -9 8 -9 25 -22 37 -31 19 -13 20 -18 9 -35 -7 -12
-10 -25 -7 -30 3 -4 -12 -14 -32 -20 -21 -7 -49 -22 -63 -35 -14 -12 -47 -37
-75 -56 -27 -18 -61 -45 -74 -59 -16 -17 -22 -19 -18 -8 5 15 4 16 -14 5 -23
-14 -36 -54 -22 -68 13 -13 43 -1 43 17 0 17 17 18 23 2 4 -9 8 -9 14 -3 4 6
26 25 48 44 108 92 117 102 104 117 -9 12 -7 14 15 14 15 0 38 7 52 17 24 15
25 15 30 -4 4 -14 12 -19 25 -16 21 6 26 -16 7 -35 -8 -8 -8 -15 2 -27 10 -12
10 -18 0 -30 -15 -18 1 -20 18 -3 10 10 20 5 47 -24 19 -20 35 -44 35 -53 0
-12 5 -15 16 -11 18 7 44 -15 44 -38 0 -13 4 -13 38 1 20 8 40 20 43 25 4 5
17 8 30 6 22 -3 25 -11 40 -99 9 -53 19 -102 24 -109 4 -7 3 -15 -3 -19 -8 -5
-7 -15 2 -33 12 -23 12 -29 0 -39 -20 -16 -7 -59 27 -89 16 -14 29 -31 29 -39
0 -9 10 -11 41 -6 33 6 43 4 54 -11 14 -20 8 -39 -21 -68 -14 -15 -14 -16 0
-16 9 0 16 -7 16 -15 0 -8 5 -15 11 -15 5 0 8 -4 5 -9 -3 -4 6 -6 19 -3 39 7
32 -25 -7 -34 -36 -7 -77 -33 -78 -49 -1 -14 -86 -75 -105 -75 -8 0 -15 -5
-15 -10 0 -6 -8 -14 -17 -17 -27 -10 -83 -54 -83 -65 0 -5 11 -24 25 -42 30
-40 32 -78 5 -120 -17 -28 -18 -39 -9 -101 8 -57 15 -76 40 -101 23 -24 29
-38 24 -53 -5 -17 -2 -21 14 -21 11 0 33 -11 48 -25 l28 -25 -30 5 c-16 3 -24
2 -17 -1 6 -3 9 -10 6 -15 -3 -6 1 -24 9 -42 80 -175 111 -237 119 -237 5 0
39 24 76 53 37 30 110 82 162 117 52 35 98 67 101 72 3 5 25 12 47 15 60 8 68
23 32 63 -24 27 -30 30 -29 15 1 -11 1 -29 0 -40 -1 -17 -3 -18 -11 -5 -14 22
-12 90 3 90 16 1 50 47 42 59 -3 5 7 11 22 13 28 3 27 1 49 105 6 33 63 93 87
93 11 0 28 -7 37 -15 14 -13 22 -14 43 -4 21 9 30 9 42 -1 13 -10 15 -9 15 8
0 23 -23 35 -39 19 -6 -6 -14 -7 -18 -3 -5 4 1 14 12 21 11 8 25 19 32 25 8 7
14 6 19 -1 3 -6 1 -15 -6 -19 -9 -6 -6 -9 11 -12 23 -3 23 -5 21 -88 -2 -48 4
-122 13 -170 9 -47 18 -114 19 -150 2 -37 11 -79 21 -98 12 -24 16 -47 12 -78
-4 -36 -1 -46 17 -57 11 -8 37 -14 56 -15 19 0 40 -8 46 -17 10 -13 13 -14 24
0 16 20 22 19 48 -5 12 -11 26 -20 32 -20 5 0 10 -4 10 -10 0 -5 9 -10 20 -10
11 0 20 -7 20 -15 0 -17 25 -20 35 -5 3 6 13 10 21 10 18 0 44 24 44 39 0 5
-8 14 -17 20 -14 8 -11 10 18 16 87 16 161 -16 115 -50 -18 -13 -18 -15 0 -51
13 -25 28 -40 46 -45 25 -7 28 -4 34 27 3 19 11 34 16 34 6 0 8 12 5 29 -4 17
-2 31 4 33 6 2 11 12 13 23 2 15 14 22 45 27 154 26 301 170 362 353 17 52 18
255 1 400 -11 104 -11 110 7 129 27 27 31 22 158 -163 173 -250 282 -345 377
-327 83 16 132 98 121 202 -7 65 -35 124 -60 124 -13 0 -95 93 -95 108 0 12
-47 62 -52 56 -3 -3 -8 7 -12 21 -4 14 -13 25 -20 25 -17 0 -67 60 -60 72 3 4
15 3 26 -3 18 -10 20 -9 15 4 -4 11 -2 14 8 11 7 -3 15 -14 18 -25 3 -10 16
-23 30 -28 13 -5 27 -16 30 -25 4 -11 1 -13 -10 -9 -30 12 -4 -14 27 -27 16
-7 30 -18 30 -24 1 -13 39 -61 44 -55 2 2 -12 28 -32 58 -39 58 -122 145 -181
189 -20 15 -38 29 -41 32 -9 9 -55 28 -82 34 -19 4 -28 2 -28 -6 0 -15 -39
-42 -48 -34 -3 3 0 6 7 6 7 0 9 5 6 10 -3 6 -18 10 -32 10 -18 0 -24 -4 -19
-15 3 -8 1 -15 -3 -15 -5 0 -16 -2 -24 -6 -8 -3 -29 9 -49 29 -19 18 -42 37
-51 40 -12 4 -17 18 -17 47 0 22 -5 40 -10 40 -6 0 -8 12 -4 28 4 21 3 24 -5
12 -6 -8 -11 -28 -11 -43 0 -32 -23 -33 -29 -1 -4 21 -35 54 -51 54 -21 0 -90
-53 -83 -64 4 -6 17 -26 30 -45 14 -20 24 -50 24 -75 l2 -41 7 35 c5 23 8 28
10 15 2 -11 2 -27 1 -35 -7 -52 -6 -80 6 -80 24 0 23 -19 -3 -58 -43 -66 -75
-27 -38 47 21 42 12 50 -15 12 -27 -37 -100 -67 -128 -53 -21 12 -48 85 -33
90 22 8 62 47 71 69 12 33 -5 63 -37 63 -13 0 -27 7 -30 15 -9 22 -32 18 -61
-11 -21 -22 -25 -32 -20 -66 4 -27 1 -45 -8 -54 -19 -19 -22 -18 -40 16 -23
44 -19 81 15 122 26 31 28 38 15 48 -8 7 -22 10 -30 6 -8 -3 -15 0 -15 7 0 7
-17 12 -45 13 -25 1 -45 -1 -45 -3 0 -3 11 -14 25 -25 14 -11 31 -41 40 -70
14 -49 14 -54 -6 -96 -35 -72 -66 -102 -105 -102 -27 0 -36 6 -49 30 -24 47
-20 60 20 60 43 0 85 37 85 73 0 28 -32 73 -59 82 -23 7 -70 -11 -87 -33 -8
-9 -14 -36 -14 -60 l0 -42 -45 2 c-39 1 -45 4 -50 29 -4 15 1 43 10 65 12 30
13 39 3 46 -18 11 -46 10 -53 -2 -9 -14 -88 -13 -103 2 -9 9 -16 8 -30 -5 -10
-9 -26 -17 -35 -17 -9 0 -17 -5 -17 -11 0 -7 -10 -9 -24 -5 -14 3 -28 1 -31
-4 -4 -6 -10 -8 -14 -5 -5 2 -21 -2 -37 -9 -16 -8 -49 -17 -74 -21 -42 -7
-105 -44 -123 -73 -5 -7 -12 -10 -18 -7 -5 4 -9 -2 -9 -12 0 -13 -3 -14 -8 -5
-7 9 -16 7 -40 -10 -18 -13 -87 -61 -154 -107 -139 -96 -173 -126 -217 -195
-40 -64 -42 -33 -2 49 59 124 280 297 461 360 l35 12 -32 7 c-19 4 -33 14 -33
22 0 16 -16 19 -25 4 -11 -18 -49 -10 -72 14 -18 19 -22 31 -17 57 9 47 28 66
73 73 22 3 41 13 45 21 3 8 11 15 19 15 14 0 21 67 7 75 -5 3 -21 0 -37 -6
-41 -17 -105 -18 -98 -1 3 8 5 18 5 23 0 5 13 9 29 9 24 0 38 11 75 58 25 31
52 65 61 75 8 9 15 21 15 26 0 5 6 14 14 20 8 6 11 22 8 37 -3 19 2 32 19 48
30 26 46 60 53 109 4 29 1 37 -10 37 -11 0 -13 6 -9 20 5 15 2 20 -13 20 -11
0 -22 7 -26 15 -3 8 -12 15 -21 15 -10 0 -15 10 -15 29 0 33 23 61 49 61 10 0
35 7 54 15 20 8 49 15 64 15 25 0 25 -1 8 -13 -17 -13 -16 -14 6 -13 13 1 23
-4 22 -10 -1 -6 11 -11 28 -12 16 0 27 3 24 7 -2 5 10 24 29 43 35 36 35 36
186 41 30 1 50 7 50 13 0 7 12 15 26 18 33 9 56 30 44 42 -5 5 23 8 68 7 138
-5 202 -13 233 -29 17 -8 37 -13 45 -10 7 3 17 0 21 -7 7 -11 34 -26 133 -77
19 -10 43 -21 53 -24 10 -3 15 -10 12 -16 -3 -5 0 -10 8 -10 8 0 17 -9 20 -20
3 -12 14 -20 26 -20 12 0 21 -6 21 -12 0 -15 43 -58 58 -58 6 0 8 -9 5 -19 -3
-13 2 -23 15 -30 11 -6 28 -30 37 -53 11 -31 28 -50 57 -68 23 -14 57 -38 75
-54 37 -31 51 -30 33 3 -6 12 -7 21 -1 21 17 0 41 68 41 118 0 42 3 51 21 55
12 3 18 10 14 16 -8 14 -2 14 29 0 50 -23 50 -147 0 -134 -24 5 -40 -18 -27
-38 4 -7 6 -24 4 -39 -1 -16 2 -28 8 -28 5 0 8 11 5 24 -2 15 2 26 11 30 10 4
15 -1 16 -17 0 -12 3 -16 6 -9 2 6 9 12 14 12 6 0 8 -30 6 -72 -3 -48 0 -82 9
-99 7 -15 10 -30 6 -34 -4 -5 1 -5 12 -1 16 6 18 3 12 -25 -3 -17 -6 -37 -6
-45 0 -7 -9 -16 -20 -19 -16 -5 -18 -10 -10 -25 6 -12 7 -28 1 -43 -6 -14 -6
-29 0 -38 13 -21 11 -40 -4 -37 -7 2 -12 -1 -12 -7 0 -5 3 -9 6 -8 4 1 12 -11
19 -28 7 -16 15 -28 19 -27 3 2 29 15 56 29 28 15 73 34 100 42 50 15 91 31
172 68 52 23 60 24 72 1 10 -19 4 -60 -24 -157 -36 -128 -67 -337 -60 -410 3
-38 7 -96 10 -127 6 -99 33 -155 119 -245 46 -48 60 -66 73 -96 14 -31 29 -34
55 -10 12 11 18 12 18 4 0 -7 7 -19 14 -27 13 -13 13 -20 -1 -57 -8 -23 -21
-58 -28 -77 -28 -77 -176 -127 -262 -89 -24 11 -43 24 -43 29 0 6 -9 10 -20
10 -11 0 -20 7 -20 14 0 13 5 13 37 0 28 -12 53 -14 101 -9 71 8 72 20 2 34
-71 15 -138 37 -235 77 -113 46 -293 114 -321 121 -22 5 -34 -16 -34 -61 0
-22 27 -45 53 -46 11 0 17 -8 17 -25 0 -40 28 -96 50 -102 21 -6 21 -6 -1 -29
-17 -18 -26 -21 -35 -13 -7 6 -18 8 -24 4 -18 -11 -11 -32 13 -38 12 -3 85
-29 162 -57 265 -98 289 -104 405 -104 128 0 225 26 312 85 91 62 130 125 173
280 50 181 55 204 59 274 3 59 10 80 39 129 47 76 58 136 57 293 -3 207 1 253
21 253 21 0 67 -40 110 -97 24 -32 60 -74 80 -93 44 -44 52 -58 84 -155 14
-43 29 -83 35 -90 5 -6 25 -49 45 -95 25 -59 35 -94 31 -113 -6 -27 19 -92 49
-127 7 -8 15 -44 18 -80 5 -54 10 -68 32 -86 18 -14 28 -34 32 -61 4 -30 12
-44 29 -54 19 -10 24 -20 24 -54 0 -24 7 -59 16 -80 11 -27 12 -41 5 -48 -12
-12 -15 -89 -5 -100 3 -3 7 -34 9 -69 4 -102 28 -202 48 -206 16 -3 17 22 17
377 0 351 -1 381 -17 390 -17 9 -17 10 0 16 16 7 17 74 17 1216 l0 1209 -2725
0 -2725 0 0 -1537z m1247 1265 c-3 -7 -5 -2 -5 12 0 14 2 19 5 13 2 -7 2 -19
0 -25z m273 -142 c0 -18 -46 -66 -63 -66 -8 0 -18 8 -21 17 -6 15 -8 15 -16 3
-5 -9 -5 -17 1 -20 5 -4 4 -13 -4 -24 -12 -16 -14 -14 -27 18 -7 20 -17 36
-22 36 -4 0 -8 6 -8 14 0 19 25 27 39 13 10 -9 17 -7 31 11 11 13 23 21 28 18
4 -2 14 -1 22 4 16 10 40 -5 40 -24z m254 -62 c23 -9 20 -34 -4 -34 -13 0 -20
7 -20 20 0 22 1 23 24 14z m54 -85 c-7 -5 -21 -9 -32 -9 -15 0 -16 3 -7 14 7
8 21 12 32 9 16 -5 18 -8 7 -14z m757 -9 c-3 -5 -10 -10 -16 -10 -5 0 -9 5 -9
10 0 6 7 10 16 10 8 0 12 -4 9 -10z m-1310 -88 c6 -4 11 -25 12 -47 6 -139 11
-209 18 -276 9 -86 -6 -126 -54 -150 -14 -7 -33 -19 -42 -27 -14 -11 -19 -11
-31 2 -16 15 -33 120 -23 137 4 5 8 62 10 127 4 135 13 176 41 181 28 5 54 31
47 47 -6 15 6 18 22 6z m-911 -143 l31 -1 -27 -8 c-37 -11 -71 -2 -64 17 3 8
6 20 7 26 0 7 5 2 11 -10 8 -16 20 -23 42 -24z m1430 -304 c18 -19 12 -39 -26
-83 -15 -18 -28 -37 -28 -42 0 -6 -8 -10 -17 -10 -10 0 -30 -19 -45 -43 -15
-23 -40 -55 -57 -71 -22 -22 -29 -35 -25 -55 6 -34 -29 -82 -47 -64 -8 8 -9
20 -1 42 6 17 7 31 3 31 -5 0 -11 12 -14 28 -4 20 0 33 19 50 39 37 56 69 49
91 -5 16 5 31 40 66 73 70 119 89 149 60z m2487 -115 c63 -18 88 -104 38 -130
-17 -10 -19 -7 -19 25 0 40 -17 53 -50 35 -16 -9 -20 -18 -16 -41 4 -25 1 -29
-18 -29 -12 0 -27 -5 -34 -12 -17 -17 -41 9 -48 54 -7 39 16 69 71 94 37 16
32 16 76 4z m-476 -49 c-18 -7 -55 -4 -55 5 0 2 17 4 38 3 28 0 32 -2 17 -8z
m268 -8 c18 -5 18 -5 0 -19 -25 -19 -111 -17 -151 5 l-34 17 84 1 c46 1 91 -1
101 -4z m-323 -17 c0 -3 -4 -8 -10 -11 -5 -3 -10 -1 -10 4 0 6 5 11 10 11 6 0
10 -2 10 -4z m994 -42 c28 -29 33 -59 13 -85 -34 -43 -97 -23 -97 31 0 23 -4
30 -20 30 -25 0 -26 25 -2 39 32 19 78 13 106 -15z m223 -49 c28 -8 79 -17
114 -20 91 -8 132 -21 180 -58 57 -43 65 -67 13 -39 -61 33 -179 70 -247 78
-72 8 -131 29 -122 44 8 12 2 13 62 -5z m-4792 -94 c3 -5 1 -12 -5 -16 -5 -3
-10 1 -10 9 0 18 6 21 15 7z m3015 -131 c0 -5 -5 -10 -11 -10 -5 0 -7 5 -4 10
3 6 8 10 11 10 2 0 4 -4 4 -10z m40 -36 c0 -8 -4 -14 -10 -14 -5 0 -10 9 -10
21 0 11 5 17 10 14 6 -3 10 -13 10 -21z m-20 -34 c0 -10 4 -21 9 -24 11 -7 10
-76 -1 -76 -4 0 -8 6 -8 13 0 7 -9 23 -20 35 -24 25 -25 32 -5 32 12 0 14 7 9
26 -5 19 -4 25 5 20 6 -4 11 -16 11 -26z m50 -100 c0 -5 -5 -10 -11 -10 -5 0
-7 5 -4 10 3 6 8 10 11 10 2 0 4 -4 4 -10z m-50 -45 c0 -8 -4 -15 -10 -15 -5
0 -10 7 -10 15 0 8 5 15 10 15 6 0 10 -7 10 -15z m50 -15 c0 -5 -4 -10 -10
-10 -5 0 -10 5 -10 10 0 6 5 10 10 10 6 0 10 -4 10 -10z m-946 -25 c-4 -8 -8
-15 -10 -15 -2 0 -4 7 -4 15 0 8 4 15 10 15 5 0 7 -7 4 -15z m2155 -6 c24 -14
31 -23 23 -31 -12 -12 25 -78 46 -78 6 0 12 -7 12 -15 0 -8 12 -26 26 -40 14
-14 23 -29 19 -33 -3 -4 -37 25 -73 65 -46 49 -85 80 -124 98 -32 15 -55 32
-52 37 4 6 10 5 15 -3 7 -11 9 -10 9 4 0 24 56 23 99 -4z m-221 -39 c63 -33
82 -53 76 -77 -6 -22 -24 -32 -24 -14 0 6 -19 21 -42 35 -39 23 -44 24 -70 10
-25 -13 -29 -13 -34 1 -11 28 12 55 54 64 1 1 19 -8 40 -19z m-1937 -80 c5 0
9 -11 9 -25 0 -14 -4 -25 -10 -25 -5 0 -10 -10 -11 -22 0 -22 -1 -22 -10 2 -6
15 -7 49 -2 85 7 53 8 55 11 23 2 -21 7 -38 13 -38z m2088 19 c33 -12 43 -39
14 -39 -11 -1 -6 -6 12 -14 l30 -13 -33 -7 c-20 -5 -38 -4 -46 3 -20 17 -29
81 -12 81 2 0 17 -5 35 -11z m94 -88 c5 -1 5 -5 2 -11 -3 -5 2 -10 12 -10 9 0
30 -15 45 -32 27 -32 27 -33 7 -38 -11 -3 -20 -9 -20 -15 1 -19 -10 -45 -19
-45 -15 0 -60 23 -60 30 0 4 -3 22 -7 40 -4 24 -3 31 5 26 17 -10 15 6 -3 30
-20 26 -19 31 8 28 12 -1 26 -3 30 -3z m885 -325 c-1 -38 -5 -57 -15 -61 -31
-11 -46 28 -21 53 9 9 9 15 0 24 -9 9 -8 16 4 30 24 26 32 15 32 -46z m-5235
-188 c13 -20 -16 -68 -41 -68 -18 0 -52 47 -52 72 0 8 5 19 11 25 15 15 67 -4
82 -29z m469 -81 c22 -25 23 -53 2 -61 -9 -3 -48 -6 -88 -6 -60 0 -79 4 -107
23 -35 24 -42 42 -25 66 8 10 31 12 105 6 78 -6 99 -11 113 -28z m478 -22 c0
-8 -4 -15 -10 -15 -5 0 -12 -11 -16 -25 -4 -18 -13 -25 -29 -25 -13 0 -26 -4
-30 -10 -3 -5 -11 -7 -18 -5 -41 14 -76 -73 -84 -206 l-6 -96 41 -86 c51 -108
115 -175 192 -200 59 -19 190 -23 207 -6 8 8 14 5 23 -11 10 -19 8 -25 -11
-43 -32 -30 -60 -43 -86 -39 -14 2 -20 8 -16 18 6 17 -16 19 -50 3 -18 -8 -32
-7 -63 7 -59 26 -68 24 -75 -19 -3 -21 -10 -42 -15 -47 -16 -15 -104 -40 -142
-40 -47 0 -63 10 -65 41 -2 29 -28 53 -39 36 -4 -7 -8 -24 -8 -38 0 -36 -25
-54 -73 -53 -55 2 -74 27 -83 110 -5 52 -3 74 10 101 16 34 16 35 -14 79 -16
25 -30 53 -30 62 0 9 -9 23 -20 30 -37 23 -25 49 28 62 85 21 107 22 163 7 38
-10 61 -11 76 -4 21 9 40 43 30 53 -2 3 -47 5 -98 6 -52 0 -102 2 -111 5 -24
6 -22 29 7 87 14 27 25 55 25 62 0 20 60 50 185 93 35 12 57 28 73 52 41 60
53 69 94 69 27 0 38 -4 38 -15z m-1025 -5 c3 -5 9 -31 12 -57 7 -58 8 -63 17
-84 19 -43 -18 -88 -54 -69 -11 6 -20 14 -21 18 -5 70 1 175 11 187 14 17 26
19 35 5z m1155 -72 c13 -12 19 -23 12 -26 -17 -5 -52 17 -52 33 0 21 12 19 40
-7z m-40 -18 c0 -5 -4 -10 -10 -10 -5 0 -10 5 -10 10 0 6 5 10 10 10 6 0 10
-4 10 -10z m1660 -60 c0 -5 -4 -10 -10 -10 -5 0 -10 5 -10 10 0 6 5 10 10 10
6 0 10 -4 10 -10z m-1520 -155 c21 -25 6 -31 -19 -7 -18 16 -20 22 -9 22 9 0
21 -7 28 -15z m-1050 -360 c0 -8 -7 -15 -15 -15 -9 0 -12 6 -9 15 4 8 10 15
15 15 5 0 9 -7 9 -15z m53 -59 c12 -36 -2 -46 -52 -39 -41 6 -91 25 -91 34 0
18 30 30 48 20 15 -8 23 -7 33 5 19 23 51 13 62 -20z"/>
<path d="M3195 2291 c-3 -5 -1 -12 5 -16 5 -3 10 1 10 9 0 18 -6 21 -15 7z"/>
<path d="M750 675 c-11 -13 -8 -15 14 -15 16 0 26 5 26 15 0 8 -6 15 -14 15
-7 0 -19 -7 -26 -15z"/>
<path d="M1328 623 c6 -2 18 -2 25 0 6 3 1 5 -13 5 -14 0 -19 -2 -12 -5z"/>
<path d="M753 3083 c-7 -2 -13 -9 -13 -15 0 -6 -11 -19 -25 -30 -24 -19 -33
-38 -17 -38 12 0 82 68 82 80 0 11 -7 12 -27 3z"/>
<path d="M530 3022 c-13 -11 -20 -24 -16 -30 12 -19 21 -14 33 18 13 35 12 36
-17 12z"/>
<path d="M608 2973 c-43 -23 -59 -48 -42 -65 8 -9 113 65 114 80 0 18 -19 14
-72 -15z"/>
<path d="M3550 2930 c0 -5 5 -10 11 -10 5 0 7 5 4 10 -3 6 -8 10 -11 10 -2 0
-4 -4 -4 -10z"/>
<path d="M885 2864 l-30 -26 33 18 c17 10 32 22 32 26 0 11 -1 10 -35 -18z"/>
<path d="M936 2832 c-4 -7 -35 -31 -69 -53 -34 -23 -71 -50 -82 -61 -11 -10
-29 -25 -40 -33 -15 -10 -17 -17 -9 -25 9 -9 29 3 81 47 38 32 85 69 103 84
18 14 31 31 28 39 -3 11 -6 11 -12 2z"/>
<path d="M834 2794 c-21 -15 -51 -31 -66 -36 -16 -6 -26 -13 -23 -18 3 -4 -4
-10 -15 -13 -20 -5 -29 -37 -10 -37 8 0 98 71 155 122 19 17 -4 7 -41 -18z"/>
<path d="M975 2720 c-90 -69 -175 -146 -175 -160 0 -27 28 -17 73 26 81 77
121 110 112 94 -5 -8 12 7 38 33 44 45 57 67 40 67 -5 0 -44 -27 -88 -60z"/>
<path d="M1049 2603 c-114 -77 -179 -127 -179 -137 0 -6 5 -18 10 -26 8 -12
18 -7 57 30 26 25 50 48 53 51 3 3 33 31 67 62 35 31 59 57 55 57 -4 0 -32
-17 -63 -37z"/>
<path d="M2810 2540 c0 -5 7 -10 16 -10 8 0 12 5 9 10 -3 6 -10 10 -16 10 -5
0 -9 -4 -9 -10z"/>
<path d="M1140 2525 c-7 -8 -8 -15 -2 -15 5 0 15 7 22 15 7 8 8 15 2 15 -5 0
-15 -7 -22 -15z"/>
<path d="M2540 2500 c0 -5 4 -10 9 -10 6 0 13 5 16 10 3 6 -1 10 -9 10 -9 0
-16 -4 -16 -10z"/>
<path d="M2880 2500 c0 -5 5 -10 10 -10 6 0 10 5 10 10 0 6 -4 10 -10 10 -5 0
-10 -4 -10 -10z"/>
<path d="M1060 2460 c-14 -11 -30 -20 -35 -20 -20 0 -88 -77 -75 -85 10 -6 99
67 128 107 17 23 13 22 -18 -2z"/>
<path d="M1100 2432 c-37 -25 -73 -62 -66 -69 6 -6 65 41 84 68 16 23 14 23
-18 1z"/>
<path d="M1246 2413 c-6 -14 -5 -15 5 -6 7 7 10 15 7 18 -3 3 -9 -2 -12 -12z"/>
<path d="M996 2344 c-10 -7 -23 -11 -28 -7 -6 3 -5 -4 1 -16 10 -18 14 -19 31
-9 22 14 33 35 22 42 -4 2 -16 -2 -26 -10z"/>
<path d="M1131 2308 c-33 -29 -60 -59 -60 -65 -1 -7 -5 -13 -11 -13 -11 0 -14
-33 -3 -43 6 -7 164 138 172 158 2 6 -3 4 -11 -3 -10 -8 -19 -9 -22 -3 -3 5 0
12 6 14 10 4 10 6 0 6 -7 1 -39 -23 -71 -51z"/>
<path d="M1437 2343 c-4 -3 -7 -11 -7 -17 0 -6 5 -5 12 2 6 6 9 14 7 17 -3 3
-9 2 -12 -2z"/>
<path d="M1305 2251 c-11 -5 -41 -28 -66 -52 -25 -24 -62 -57 -83 -72 -35 -27
-42 -47 -20 -54 9 -3 156 133 183 170 15 19 14 19 -14 8z"/>
<path d="M3147 2202 c-18 -20 -22 -32 -9 -32 4 0 12 11 19 25 13 30 12 31 -10
7z"/>
<path d="M1424 2185 c-10 -8 -14 -14 -9 -15 15 0 40 18 34 24 -3 3 -14 -1 -25
-9z"/>
<path d="M3891 2040 c0 -18 27 -79 28 -64 1 7 -6 27 -14 45 -8 19 -14 27 -14
19z"/>
<path d="M1900 1432 c0 -5 -13 -15 -30 -22 -16 -7 -30 -15 -30 -19 0 -4 -14
-15 -31 -25 -17 -10 -67 -54 -111 -97 -45 -43 -85 -79 -89 -79 -5 0 -9 -3 -9
-8 0 -4 -18 -18 -40 -32 -45 -28 -45 -27 -27 -66 8 -16 27 -59 43 -96 16 -37
33 -68 38 -68 5 0 31 16 57 35 55 40 63 41 112 20 20 -8 47 -15 60 -15 42 0
54 80 35 236 -3 25 38 104 54 104 12 0 18 14 23 61 4 33 5 62 4 64 -10 10 -59
16 -59 7z"/>
<path d="M2670 1150 c-13 -8 -13 -10 2 -10 9 0 20 5 23 10 8 13 -5 13 -25 0z"/>
<path d="M2520 1098 c0 -12 1 -19 3 -17 1 2 9 12 16 22 12 14 11 17 -3 17 -10
0 -16 -8 -16 -22z"/>
<path d="M2104 1016 c-12 -6 -29 -18 -37 -25 -9 -7 -29 -13 -46 -13 -21 -1
-31 -6 -31 -17 0 -9 -7 -25 -15 -36 -23 -29 -5 -108 33 -145 19 -19 81 -14 89
6 3 8 16 14 29 14 27 0 26 -2 14 60 -7 37 -5 53 12 90 12 25 26 48 32 52 6 5
1 8 -11 8 -12 0 -25 5 -28 10 -7 12 -14 12 -41 -4z"/>
<path d="M2755 969 c4 -6 -2 -13 -13 -16 -27 -7 -25 -43 2 -43 11 0 16 3 13 7
-4 3 -3 11 2 17 18 24 20 46 5 46 -8 0 -12 -5 -9 -11z"/>
<path d="M2690 892 c0 -4 4 -13 9 -20 7 -11 9 -11 14 1 3 9 -1 18 -9 21 -8 3
-14 2 -14 -2z"/>
<path d="M1520 810 c0 -11 5 -20 10 -20 6 0 10 9 10 20 0 11 -4 20 -10 20 -5
0 -10 -9 -10 -20z"/>
<path d="M5382 460 c-17 -28 -36 -50 -42 -50 -8 0 -11 -33 -9 -102 2 -140 -2
-169 -33 -214 -15 -22 -30 -51 -33 -67 l-7 -27 96 0 96 0 0 235 c0 150 -4 235
-10 235 -5 0 -10 6 -10 14 0 33 -19 23 -48 -24z"/>
<path d="M3581 138 c-8 -18 -24 -44 -36 -58 -12 -14 -22 -37 -23 -52 l-2 -28
93 0 94 0 -5 29 c-3 21 -11 31 -30 36 -16 4 -28 1 -33 -7 -4 -7 -12 -9 -16 -4
-4 4 -1 13 8 19 9 7 19 22 23 35 4 12 12 20 17 17 14 -9 11 11 -4 24 -8 6 -27
13 -43 17 -26 5 -31 1 -43 -28z"/>
<path d="M5105 30 c-3 -5 -1 -10 4 -10 6 0 11 5 11 10 0 6 -2 10 -4 10 -3 0
-8 -4 -11 -10z"/>
<path d="M3785 13 c-3 -9 10 -13 45 -13 62 0 66 17 5 22 -29 2 -46 -1 -50 -9z"/>
<path d="M3890 10 c0 -5 5 -10 11 -10 5 0 7 5 4 10 -3 6 -8 10 -11 10 -2 0 -4
-4 -4 -10z"/>
</g>
</svg>
